<?xml version="1.0"?>
<svg xmlns="http://www.w3.org/2000/svg" id="Capa_1" enable-background="new 0 0 492 492" height="512px" viewBox="0 0 492 492" width="512px"><g><path d="m236.877 294.807h98.246c3.314 0 6-2.686 6-6s-2.686-6-6-6h-92.246v-123.122c0-3.314-2.686-6-6-6s-6 2.686-6 6v129.122c0 3.314 2.686 6 6 6z" data-original="#000000" class="active-path" data-old_color="#000000" fill="#555555"/><path d="m236.877 492c115.523 0 209.509-93.985 209.509-209.509.033-54.594-21.317-107.03-59.477-146.073l43.482-39.649 23.967 24.32c2.326 2.36 6.125 2.388 8.486.062 2.36-2.326 2.388-6.125.061-8.486l-47.719-48.421c-2.326-2.36-6.125-2.388-8.486-.062-2.36 2.326-2.388 6.125-.061 8.485l15.322 15.547-43.677 39.828c-37.036-34.042-85.121-53.563-135.407-54.968v-61.074h31.193c3.314 0 6-2.686 6-6s-2.686-6-6-6h-74.386c-3.314 0-6 2.686-6 6s2.686 6 6 6h31.193v61.074c-112.759 3.188-203.509 95.9-203.509 209.417 0 115.524 93.986 209.509 209.509 209.509zm0-407.018c108.907 0 197.509 88.6 197.509 197.509s-88.602 197.509-197.509 197.509-197.509-88.6-197.509-197.509 88.602-197.509 197.509-197.509z" data-original="#000000" class="active-path" data-old_color="#000000" fill="#555555"/></g> </svg>
